<svg id="directory" xmlns="http://www.w3.org/2000/svg" width="47.55" height="67.619" viewBox="0 0 47.55 67.619">
  <g id="Group_2" data-name="Group 2" transform="translate(0)">
    <g id="Group_1" data-name="Group 1">
      <path id="Path_1" data-name="Path 1" d="M122.508,7.915H110.265V3.848a1.021,1.021,0,0,0-1.021-1.021h-5.02V1.021A1.021,1.021,0,0,0,103.2,0H94.828a1.021,1.021,0,0,0-1.021,1.021V2.827H89.548a1.021,1.021,0,0,0-1.021,1.021V7.915H77a1.021,1.021,0,0,0-1.021,1.021v4.24a1.021,1.021,0,1,0,2.042,0V9.957H88.527v3.219A1.021,1.021,0,0,0,89.548,14.2h19.7a1.021,1.021,0,0,0,1.021-1.021V9.957h11.222V65.577H78.021v-47.8a1.021,1.021,0,1,0-2.042,0V66.6A1.021,1.021,0,0,0,77,67.619h45.508a1.021,1.021,0,0,0,1.021-1.021V8.936A1.021,1.021,0,0,0,122.508,7.915ZM95.849,2.042h6.333v.785H95.849Zm12.374,10.112H90.569V4.869h17.654Z" transform="translate(-75.979)" fill="#8e8e8e"/>
    </g>
  </g>
  <g id="Group_4" data-name="Group 4" transform="translate(16.552 22.178)">
    <g id="Group_3" data-name="Group 3">
      <path id="Path_2" data-name="Path 2" d="M224.348,167.931H202.331a1.021,1.021,0,1,0,0,2.042h22.017a1.021,1.021,0,0,0,0-2.042Z" transform="translate(-201.31 -167.931)" fill="#8e8e8e"/>
    </g>
  </g>
  <g id="Group_6" data-name="Group 6" transform="translate(16.552 33.381)">
    <g id="Group_5" data-name="Group 5">
      <path id="Path_3" data-name="Path 3" d="M224.348,252.758H202.331a1.021,1.021,0,1,0,0,2.042h22.017a1.021,1.021,0,0,0,0-2.042Z" transform="translate(-201.31 -252.758)" fill="#8e8e8e"/>
    </g>
  </g>
  <g id="Group_8" data-name="Group 8" transform="translate(16.552 44.584)">
    <g id="Group_7" data-name="Group 7">
      <path id="Path_4" data-name="Path 4" d="M224.348,337.584H202.331a1.021,1.021,0,1,0,0,2.042h22.017a1.021,1.021,0,1,0,0-2.042Z" transform="translate(-201.31 -337.584)" fill="#8e8e8e"/>
    </g>
  </g>
  <g id="Group_10" data-name="Group 10" transform="translate(16.552 55.787)">
    <g id="Group_9" data-name="Group 9">
      <path id="Path_5" data-name="Path 5" d="M224.348,422.411H202.331a1.021,1.021,0,1,0,0,2.042h22.017a1.021,1.021,0,0,0,0-2.042Z" transform="translate(-201.31 -422.411)" fill="#8e8e8e"/>
    </g>
  </g>
  <g id="Group_12" data-name="Group 12" transform="translate(6.672 19.48)">
    <g id="Group_11" data-name="Group 11">
      <path id="Path_6" data-name="Path 6" d="M133.164,147.5H127.52a1.021,1.021,0,0,0-1.021,1.021V154.3a1.021,1.021,0,0,0,1.021,1.021h5.644a1.021,1.021,0,0,0,1.021-1.021V148.52A1.021,1.021,0,0,0,133.164,147.5Zm-1.021,5.643h-3.6v-3.46h3.6Z" transform="translate(-126.499 -147.499)" fill="#8e8e8e"/>
    </g>
  </g>
  <g id="Group_14" data-name="Group 14" transform="translate(6.672 30.928)">
    <g id="Group_13" data-name="Group 13">
      <path id="Path_7" data-name="Path 7" d="M133.164,234.179H127.52A1.021,1.021,0,0,0,126.5,235.2v5.643a1.021,1.021,0,0,0,1.021,1.021h5.644a1.021,1.021,0,0,0,1.021-1.021V235.2A1.021,1.021,0,0,0,133.164,234.179Zm-1.021,5.643h-3.6v-3.6h3.6Z" transform="translate(-126.499 -234.179)" fill="#8e8e8e"/>
    </g>
  </g>
  <g id="Group_16" data-name="Group 16" transform="translate(6.672 42.093)">
    <g id="Group_15" data-name="Group 15">
      <path id="Path_8" data-name="Path 8" d="M133.164,318.718H127.52a1.021,1.021,0,0,0-1.021,1.021v5.644a1.021,1.021,0,0,0,1.021,1.021h5.644a1.021,1.021,0,0,0,1.021-1.021v-5.644A1.021,1.021,0,0,0,133.164,318.718Zm-1.021,5.644h-3.6v-3.6h3.6Z" transform="translate(-126.499 -318.718)" fill="#8e8e8e"/>
    </g>
  </g>
  <g id="Group_18" data-name="Group 18" transform="translate(6.672 53.399)">
    <g id="Group_17" data-name="Group 17">
      <path id="Path_9" data-name="Path 9" d="M133.164,404.328H127.52a1.021,1.021,0,0,0-1.021,1.021v5.643a1.021,1.021,0,0,0,1.021,1.021h5.644a1.021,1.021,0,0,0,1.021-1.021v-5.643A1.021,1.021,0,0,0,133.164,404.328Zm-1.021,5.643h-3.6v-3.6h3.6Z" transform="translate(-126.499 -404.328)" fill="#8e8e8e"/>
    </g>
  </g>
</svg>
