<svg xmlns="http://www.w3.org/2000/svg" width="57.681" height="57.681" viewBox="0 0 57.681 57.681">
  <path id="real-estate" d="M57.006,22.024,50.471,16.8V5.407a1.8,1.8,0,0,0-1.8-1.8H41.462a1.8,1.8,0,0,0-1.8,1.8l0,2.741L29.967.393a1.81,1.81,0,0,0-2.253,0L.676,22.024A1.8,1.8,0,0,0,1.8,25.235H7.21V55.878a1.8,1.8,0,0,0,1.8,1.8H48.669a1.8,1.8,0,0,0,1.8-1.8V25.235h5.408a1.8,1.8,0,0,0,1.127-3.211ZM43.261,10.816l0-3.607h3.6v6.7L43,10.816h.265ZM25.236,54.075V39.655h7.21v14.42ZM48.669,21.63a1.8,1.8,0,0,0-1.8,1.8V54.075H36.051V37.853a1.8,1.8,0,0,0-1.8-1.8H23.433a1.8,1.8,0,0,0-1.8,1.8V54.075H10.815V23.432a1.8,1.8,0,0,0-1.8-1.8H6.941l21.9-17.52,21.9,17.52Z" transform="translate(-0.001)" fill="#fe7105"/>
</svg>
