<svg id="group" xmlns="http://www.w3.org/2000/svg" width="82.747" height="52.54" viewBox="0 0 82.747 52.54">
  <g id="Group_19" data-name="Group 19" transform="translate(0 0)">
    <path id="Path_10" data-name="Path 10" d="M71.565,115.368a9.447,9.447,0,1,0-10.839,0,16.368,16.368,0,0,0-5.583,3.275,21.181,21.181,0,0,0-7.662-4.175,11.968,11.968,0,1,0-12.378,0,21.357,21.357,0,0,0-7.581,4.126A16.5,16.5,0,0,0,22,115.385a9.447,9.447,0,1,0-10.839,0A16.583,16.583,0,0,0,0,131.053v1.081a.07.07,0,0,0,.065.065H20.089a22.021,22.021,0,0,0-.18,2.767v1.113a8.706,8.706,0,0,0,8.71,8.71H54a8.706,8.706,0,0,0,8.71-8.71v-1.113a22.019,22.019,0,0,0-.18-2.767H82.682a.07.07,0,0,0,.065-.065v-1.081A16.646,16.646,0,0,0,71.565,115.368Zm-12.247-7.744a6.827,6.827,0,1,1,6.958,6.827h-.262A6.817,6.817,0,0,1,59.318,107.624ZM31.91,104.218a9.349,9.349,0,1,1,9.889,9.332H40.719A9.362,9.362,0,0,1,31.91,104.218Zm-22.2,3.406a6.827,6.827,0,1,1,6.958,6.827h-.262A6.828,6.828,0,0,1,9.709,107.624Zm10.839,21.939H2.652a13.989,13.989,0,0,1,13.786-12.492h.2a13.844,13.844,0,0,1,8.923,3.324A21.5,21.5,0,0,0,20.548,129.563Zm39.507,6.516a6.1,6.1,0,0,1-6.091,6.091H28.587A6.1,6.1,0,0,1,22.5,136.08v-1.113a18.807,18.807,0,0,1,18.223-18.779c.18.016.377.016.557.016s.377,0,.557-.016a18.807,18.807,0,0,1,18.223,18.779ZM62,129.563a21.44,21.44,0,0,0-4.961-9.1,13.911,13.911,0,0,1,9-3.389h.2A13.989,13.989,0,0,1,80.03,129.563Z" transform="translate(0 -92.25)" fill="#8e8e8e"/>
  </g>
</svg>
