<svg id="megaphone" xmlns="http://www.w3.org/2000/svg" width="69.285" height="56.975" viewBox="0 0 69.285 56.975">
  <g id="Group_21" data-name="Group 21" transform="translate(0 0)">
    <g id="Group_20" data-name="Group 20">
      <path id="Path_11" data-name="Path 11" d="M62.369,72.056a6.822,6.822,0,0,0-6-6.763V47.822a2.334,2.334,0,0,0-4.352-1.173c-3.691,6.35-9.5,10.69-17.277,12.9a36.719,36.719,0,0,1-10.776,1.426,1.351,1.351,0,0,0-.212.006H11.324a11.323,11.323,0,0,0-1.076,22.6L14,98.992a4.528,4.528,0,0,0,4.411,3.467h2.6a4.54,4.54,0,0,0,4.411-5.612L22.207,83.628h1.544a1.346,1.346,0,0,0,.213.007,36.72,36.72,0,0,1,10.777,1.426c7.774,2.21,13.586,6.55,17.277,12.9a2.3,2.3,0,0,0,2,1.164,2.4,2.4,0,0,0,.623-.083,2.309,2.309,0,0,0,1.727-2.254V79.316a6.822,6.822,0,0,0,6-6.763v-.5ZM22.364,95.728l.427,1.758a1.833,1.833,0,0,1-1.781,2.266h-2.6a1.828,1.828,0,0,1-1.781-1.4L13.047,83.629h6.375l.956,3.93H19.73a1.353,1.353,0,0,0,0,2.706h1.3l.67,2.757h-.424a1.353,1.353,0,0,0,0,2.706Zm.172-20.549h-8.41a1.353,1.353,0,0,0,0,2.706h8.41v3.036H20.559c-.025,0-.049,0-.075,0h-9.16l-.038,0a8.617,8.617,0,0,1,.038-17.234H22.536ZM53.664,66.6v28.87A31.2,31.2,0,0,0,35.39,82.432a40.786,40.786,0,0,0-10.148-1.516V63.693A40.788,40.788,0,0,0,35.39,62.177,31.2,31.2,0,0,0,53.664,49.143Zm6,5.958a4.114,4.114,0,0,1-3.292,4.026V68.03a4.114,4.114,0,0,1,3.292,4.026Z" transform="translate(0 -45.484)" fill="#8e8e8e"/>
      <path id="Path_12" data-name="Path 12" d="M455.24,145.331a1.348,1.348,0,0,0,.911-.353l3.9-3.555a1.353,1.353,0,1,0-1.822-2l-3.9,3.555a1.353,1.353,0,0,0,.912,2.354Z" transform="translate(-392.465 -126.406)" fill="#8e8e8e"/>
      <path id="Path_13" data-name="Path 13" d="M456.151,302.376a1.353,1.353,0,1,0-1.822,2l3.9,3.554a1.353,1.353,0,1,0,1.822-2Z" transform="translate(-392.465 -267.308)" fill="#8e8e8e"/>
      <path id="Path_14" data-name="Path 14" d="M474.2,233.68h-3a1.353,1.353,0,1,0,0,2.706h3a1.353,1.353,0,1,0,0-2.706Z" transform="translate(-406.272 -208.213)" fill="#8e8e8e"/>
      <path id="Path_15" data-name="Path 15" d="M55.784,265.765a1.336,1.336,0,0,0-.124-.234,1.362,1.362,0,0,0-.608-.5,1.435,1.435,0,0,0-.253-.077,1.339,1.339,0,0,0-.529,0,1.369,1.369,0,0,0-.253.077,1.389,1.389,0,0,0-.234.124,1.315,1.315,0,0,0-.373.374,1.336,1.336,0,0,0-.124.234,1.366,1.366,0,0,0-.077.253,1.333,1.333,0,0,0-.027.264,1.357,1.357,0,0,0,.027.265,1.432,1.432,0,0,0,.077.253,1.372,1.372,0,0,0,.124.233,1.3,1.3,0,0,0,.168.206,1.334,1.334,0,0,0,.44.294,1.364,1.364,0,0,0,.253.077,1.373,1.373,0,0,0,.529,0,1.4,1.4,0,0,0,.253-.077,1.375,1.375,0,0,0,.233-.124,1.471,1.471,0,0,0,.207-.169,1.373,1.373,0,0,0,.292-.438,1.432,1.432,0,0,0,.077-.253,1.355,1.355,0,0,0,.026-.265,1.332,1.332,0,0,0-.026-.264A1.367,1.367,0,0,0,55.784,265.765Z" transform="translate(-45.984 -235.233)" fill="#8e8e8e"/>
    </g>
  </g>
</svg>
